<?xml version="1.0" standalone="no"?>
<!DOCTYPE svg PUBLIC "-//W3C//DTD SVG 20010904//EN"
 "http://www.w3.org/TR/2001/REC-SVG-20010904/DTD/svg10.dtd">
<svg version="1.0" xmlns="http://www.w3.org/2000/svg"
 width="957.000000pt" height="1200.000000pt" viewBox="0 0 957.000000 1200.000000"
 preserveAspectRatio="xMidYMid meet">
<metadata>
Created by potrace 1.16, written by Peter Selinger 2001-2019
</metadata>
<g transform="translate(0.000000,1200.000000) scale(0.100000,-0.100000)"
fill="#000000" stroke="none">
<path d="M3316 11124 c-27 -15 -27 -17 -12 -32 16 -16 19 -15 37 11 17 22 28
27 64 27 40 0 73 -19 48 -27 -5 -2 -36 -33 -68 -69 l-58 -66 93 47 c74 37 94
44 106 34 12 -10 0 -18 -68 -47 -115 -47 -268 -148 -268 -176 0 -11 -9 -36
-20 -54 -11 -18 -17 -38 -14 -44 4 -7 2 -8 -4 -4 -6 4 -18 -4 -27 -18 l-17
-25 -43 21 -43 21 -42 -33 c-40 -32 -118 -66 -127 -56 -3 3 12 9 34 15 45 12
106 54 95 66 -4 5 -1 5 7 0 9 -5 12 -4 7 3 -11 18 -41 14 -62 -9 -10 -11 -26
-18 -36 -16 -10 3 -16 1 -12 -4 3 -5 -3 -9 -13 -9 -11 0 -23 -4 -28 -8 -34
-30 -220 -78 -240 -62 -18 15 -83 2 -105 -20 -11 -11 -29 -20 -39 -20 -11 0
-23 -4 -26 -10 -9 -15 26 -12 58 4 15 8 27 11 27 7 0 -15 -85 -43 -135 -45
-48 -1 -50 0 -62 34 -6 19 -12 28 -12 19 -1 -9 -8 -22 -16 -29 -8 -7 -13 -15
-11 -19 3 -4 -6 -33 -19 -66 -14 -34 -20 -62 -15 -65 5 -3 -16 -31 -48 -61
-32 -31 -78 -84 -102 -118 -25 -34 -80 -107 -123 -163 -43 -55 -85 -114 -93
-130 -9 -16 -20 -26 -26 -22 -7 4 -8 3 -4 -5 4 -6 -2 -25 -14 -41 -57 -80
-253 -540 -237 -556 2 -2 30 63 62 144 71 180 169 379 242 492 55 84 148 206
187 245 12 11 32 36 46 55 73 99 191 215 212 208 7 -3 31 5 53 17 49 27 173
70 181 62 3 -3 -22 -20 -55 -37 -33 -18 -58 -37 -55 -42 3 -5 14 -6 25 -3 10
4 30 8 44 9 14 2 42 18 63 37 25 22 21 17 -10 -16 -26 -28 -54 -63 -62 -80
-13 -24 -16 -26 -16 -10 -1 19 -1 19 -11 2 -6 -9 -15 -15 -20 -11 -5 3 -8 2
-7 -3 1 -4 -12 -24 -30 -43 -18 -19 -35 -46 -39 -60 -3 -14 -12 -37 -19 -51
-7 -15 -15 -37 -18 -50 -9 -44 -54 -167 -81 -219 -41 -80 -83 -133 -118 -147
-18 -8 -40 -24 -50 -36 -18 -22 -18 -21 -2 11 9 18 20 30 24 27 5 -3 7 4 4 16
-5 19 -7 19 -24 -8 -11 -15 -19 -31 -19 -35 0 -4 -18 -44 -39 -90 -36 -75
-202 -552 -200 -574 0 -5 7 5 15 21 14 29 14 8 -1 -27 -5 -14 1 -17 37 -21
l43 -4 -47 -1 c-27 -1 -48 -7 -48 -13 0 -5 -4 -8 -9 -5 -5 4 -7 -2 -4 -12 6
-25 -22 -52 -54 -52 -19 0 -24 4 -19 16 23 60 22 61 -49 68 -36 4 -70 4 -75 1
-6 -4 -10 -19 -10 -35 0 -41 -10 -60 -31 -60 -13 0 -19 -7 -18 -22 1 -17 2
-19 6 -5 2 9 11 17 18 17 10 0 15 -16 17 -52 l3 -53 14 43 c8 23 16 40 19 38
2 -3 -3 -26 -12 -52 -11 -34 -16 -81 -15 -163 1 -74 4 -107 9 -91 8 24 8 24 9
2 1 -25 7 -28 64 -36 l38 -5 -6 47 c-3 27 -14 53 -25 64 -26 24 -25 33 6 155
27 102 34 112 80 113 13 0 -10 -95 -28 -117 -18 -23 -22 -158 -6 -191 12 -23
13 -33 4 -43 -8 -9 -8 -10 3 -4 11 6 13 4 8 -8 -6 -15 4 -17 81 -17 155 0 285
32 295 72 4 14 11 18 25 13 11 -3 23 -1 27 4 3 7 0 8 -9 5 -9 -3 -16 -4 -16
-2 0 6 162 123 170 123 4 0 28 23 53 50 26 28 46 46 47 42 0 -14 -92 -107
-101 -101 -5 3 -17 -7 -26 -23 -30 -52 -152 -139 -226 -162 -107 -33 -227 -44
-346 -32 -57 6 -107 8 -112 5 -5 -3 -9 0 -9 7 0 7 -3 10 -6 6 -3 -3 -3 -21 1
-39 7 -29 9 -30 16 -13 6 17 8 15 9 -10 0 -16 8 -66 16 -110 8 -44 19 -149 24
-234 9 -162 30 -232 30 -105 1 67 1 68 15 39 14 -28 14 -29 12 -5 -3 40 36 40
53 0 7 -17 17 -33 23 -37 6 -4 7 -1 2 7 -5 9 -4 11 4 6 6 -4 9 -12 6 -17 -9
-13 35 -70 47 -63 6 4 8 2 4 -4 -9 -14 5 -21 27 -13 17 6 16 10 -8 45 -30 44
-63 112 -68 141 -2 11 -7 27 -10 35 -7 18 -49 187 -53 215 -1 11 -3 21 -4 23
-2 1 -3 5 -4 10 -1 4 -4 12 -8 18 -9 14 0 24 21 24 12 0 13 -2 3 -9 -19 -11
-11 -32 23 -63 17 -15 24 -28 18 -28 -7 0 -13 5 -13 12 0 6 -2 9 -5 7 -4 -5 8
-64 37 -177 6 -23 11 -50 12 -60 2 -25 78 -182 88 -182 5 0 7 -9 3 -20 -5 -15
0 -21 19 -26 25 -6 80 0 113 13 10 4 14 2 10 -4 -4 -6 -21 -13 -39 -17 -30 -6
-31 -7 -12 -22 18 -14 15 -15 -31 -10 -27 2 -42 2 -32 0 10 -3 30 -12 44 -19
15 -8 30 -12 34 -9 5 3 20 -13 34 -35 31 -46 46 -54 80 -41 16 6 25 6 25 0 0
-6 7 -10 15 -10 8 0 15 -4 15 -10 0 -5 -3 -9 -7 -9 -5 1 -15 1 -23 0 -13 -1
-13 -3 -1 -10 12 -8 12 -12 2 -25 -9 -11 -30 -16 -67 -16 -29 0 -56 -4 -59
-10 -3 -5 0 -8 7 -6 7 3 56 7 108 11 52 4 124 10 160 15 l65 8 -77 -2 c-89 -2
-86 -8 -48 99 12 33 29 80 37 104 9 24 18 38 22 33 8 -14 64 -17 118 -8 35 6
46 4 64 -13 13 -12 28 -21 33 -21 6 0 3 5 -6 11 -27 15 -22 36 12 48 42 14 37
22 -10 15 -32 -5 -40 -4 -40 9 0 9 13 23 28 33 16 9 35 26 42 37 10 16 5 14
-21 -8 -34 -28 -34 -28 -37 -6 -2 13 0 35 4 50 4 14 6 32 5 40 -1 8 2 10 10 5
9 -5 10 -2 6 9 -7 20 12 137 23 137 10 0 18 -31 26 -112 6 -59 5 -68 -10 -69
-29 -2 -34 -4 -42 -11 -4 -5 8 -8 27 -8 35 0 35 -1 47 -61 9 -43 22 -71 46
-97 18 -20 43 -56 55 -79 12 -24 33 -50 47 -60 24 -16 25 -18 9 -30 -10 -7
-22 -10 -28 -6 -6 3 -7 1 -3 -5 5 -9 -22 -12 -103 -12 -60 0 -112 -3 -114 -7
-3 -5 50 -5 116 -2 103 4 133 10 190 33 37 16 66 30 64 33 -2 2 -16 -1 -30 -6
-37 -14 -71 6 -95 55 l-21 42 62 -3 c34 -1 49 -1 32 1 -77 10 -95 16 -105 34
-23 44 -61 217 -65 303 l-5 92 14 -62 c18 -78 28 -96 72 -130 36 -27 96 -35
127 -16 6 4 17 8 22 9 6 1 31 15 55 32 l44 30 18 -89 c32 -155 73 -244 104
-218 7 6 17 8 23 5 5 -3 12 1 15 10 3 8 14 14 23 13 10 -2 32 5 48 14 30 17
30 17 3 11 -23 -5 -31 1 -62 43 -43 58 -136 244 -136 272 0 11 5 32 12 46 8
18 8 29 1 36 -7 7 -13 0 -18 -23 l-7 -33 -14 32 c-11 25 -38 229 -36 268 3 55
15 167 21 195 6 31 9 24 19 -53 16 -107 19 -117 43 -117 12 0 26 -15 39 -41
24 -46 134 -198 156 -214 8 -5 16 -19 18 -31 6 -31 75 -244 92 -282 17 -40 18
-53 2 -51 -7 1 -33 -7 -58 -19 -53 -24 -48 -28 12 -8 127 42 391 105 503 119
l30 4 -33 2 c-40 1 -249 -41 -345 -70 -109 -32 -101 -16 11 21 55 19 99 37 97
41 -3 3 7 4 20 1 31 -6 31 4 -1 62 -14 25 -23 46 -20 46 3 0 20 -9 38 -20 18
-11 44 -20 58 -20 14 0 38 -7 53 -15 29 -15 91 -10 81 6 -3 5 8 6 23 3 15 -3
39 -1 53 5 22 9 20 10 -15 6 l-40 -6 50 21 c28 12 88 39 135 60 47 21 153 59
235 85 83 25 155 48 160 50 30 14 -75 -12 -169 -41 -60 -19 -111 -33 -113 -31
-1 2 4 17 12 34 18 37 38 140 31 159 -10 25 -26 15 -26 -17 0 -17 -11 -49 -25
-72 -29 -51 -114 -136 -141 -142 -10 -2 -50 -16 -89 -30 -66 -25 -116 -31
-175 -21 -14 2 -31 5 -39 5 -18 1 -165 153 -191 198 l-19 33 29 -15 c16 -8 41
-15 55 -15 14 0 42 -7 61 -15 35 -15 120 -21 160 -12 12 3 39 8 60 11 21 4 43
12 49 18 7 8 3 9 -15 4 -14 -4 -65 -10 -115 -13 -75 -4 -101 -2 -154 16 -35
11 -71 26 -79 33 -13 10 -14 10 -8 1 13 -23 -5 -13 -36 20 -18 17 -26 23 -18
12 7 -11 -4 -2 -24 20 -42 45 -127 206 -163 310 -34 95 -52 165 -45 163 27 -3
34 3 22 17 -20 24 -4 29 40 11 36 -14 40 -14 40 0 0 10 8 6 26 -13 22 -24 24
-25 14 -5 -6 13 -9 28 -6 35 2 7 5 4 5 -5 1 -29 15 -20 37 25 20 41 59 71 77
60 4 -3 0 -14 -9 -24 -17 -19 -17 -20 12 -4 16 8 39 15 51 15 12 0 25 5 28 10
4 6 10 8 15 5 5 -3 39 -8 77 -10 77 -6 95 -19 115 -88 16 -58 17 -169 1 -174
-7 -3 -13 -14 -13 -25 0 -11 -5 -18 -12 -15 -7 2 -12 13 -11 23 1 10 4 37 6
59 2 22 2 27 -1 10 -5 -27 -7 -24 -13 20 -6 48 -6 47 -6 -17 1 -53 -3 -71 -18
-88 -19 -21 -19 -21 8 -15 21 6 27 4 27 -10 0 -13 -6 -15 -32 -11 -30 5 -29 4
11 -14 24 -11 48 -17 51 -13 22 24 38 116 37 211 -2 76 1 102 11 102 39 0 159
-81 147 -99 -3 -5 0 -13 6 -17 8 -4 9 -3 5 4 -4 7 -5 12 -2 12 3 0 22 -33 41
-74 24 -48 37 -89 38 -120 l1 -47 18 35 c13 26 15 41 8 67 -5 18 -8 34 -6 36
8 8 63 -73 59 -87 -4 -12 -2 -12 5 -2 7 10 15 5 35 -21 35 -46 153 -140 177
-142 11 -1 20 -1 20 0 0 1 -22 16 -50 33 -34 21 -50 38 -50 52 0 12 -4 19 -9
16 -5 -3 -14 1 -21 9 -7 8 -16 13 -20 10 -4 -3 -14 3 -21 13 -13 15 -12 16 4
3 10 -8 17 -9 17 -3 0 6 -4 14 -10 17 -10 6 -68 104 -87 147 -11 26 -11 26 16
18 30 -8 96 -6 131 5 23 7 22 32 -1 26 -46 -11 -93 -12 -120 -1 -28 12 -29 14
-13 23 16 9 11 13 -31 27 -45 15 -50 20 -66 69 -17 50 -17 53 -1 47 12 -4 10
-1 -5 11 -16 13 -28 43 -42 108 -11 49 -18 91 -17 93 8 7 57 -20 63 -35 9 -24
33 -48 33 -33 0 8 14 9 45 4 28 -4 45 -2 45 4 0 6 -23 13 -50 17 -28 4 -48 11
-45 16 3 4 20 6 38 3 29 -5 30 -4 15 9 -10 8 -18 18 -18 22 0 5 9 0 20 -10 11
-10 17 -22 14 -26 -3 -5 2 -9 11 -9 9 0 29 -8 43 -18 29 -20 62 -34 62 -27 0
2 -14 12 -30 20 -18 9 -28 21 -24 27 4 6 3 8 -3 5 -29 -18 -115 98 -100 136 3
6 6 3 7 -8 1 -15 4 -12 11 10 4 16 6 39 3 52 -4 13 0 30 7 40 12 14 12 16 -1
11 -8 -2 -23 -28 -32 -58 -10 -29 -20 -55 -22 -57 -2 -3 -11 8 -20 24 -8 15
-15 24 -15 18 0 -5 6 -21 14 -35 8 -14 14 -41 14 -60 0 -28 -2 -31 -8 -15 -5
11 -6 25 -4 30 2 6 -3 1 -11 -9 -16 -19 -17 -19 -46 9 -19 18 -30 39 -30 56 0
21 -6 28 -27 32 -16 4 -49 26 -74 50 -26 23 -52 41 -59 39 -23 -8 -115 102
-164 198 -53 102 -114 198 -140 219 -25 21 -19 7 28 -66 24 -37 60 -102 81
-143 21 -41 50 -93 65 -115 l27 -40 -10 -98 -11 -98 -80 2 c-101 3 -181 -19
-227 -62 -19 -17 -25 -26 -14 -20 44 24 165 50 245 53 84 3 85 3 88 -22 2 -20
1 -22 -7 -10 -8 11 -10 7 -7 -17 3 -18 1 -54 -2 -80 l-7 -48 -80 -6 c-44 -4
-93 -12 -110 -19 -16 -7 -34 -12 -40 -11 -5 2 -27 -3 -48 -10 -36 -12 -39 -11
-73 22 -19 19 -54 72 -77 118 -34 69 -41 93 -42 142 0 32 -3 59 -6 59 -10 0
21 151 38 184 9 17 26 43 38 58 l23 27 -5 -102 c-4 -108 5 -190 22 -185 6 2 8
23 7 47 -2 24 -1 63 3 87 l6 44 28 -29 c44 -45 79 -58 151 -56 71 2 95 11 125
46 17 20 15 19 -13 -3 -41 -34 -71 -28 -36 7 13 13 24 32 23 42 0 15 -2 14 -9
-3 -11 -29 -48 -54 -79 -54 -25 0 -111 77 -111 99 0 7 4 9 10 6 5 -3 2 11 -6
30 -26 64 2 172 62 236 14 14 26 35 29 47 2 12 19 60 38 108 23 57 33 94 28
110 -13 49 -239 257 -344 318 -26 15 -45 31 -42 37 4 5 11 6 17 3 7 -5 8 -2 4
5 -9 14 47 104 106 167 24 26 37 48 32 55 -4 8 -3 9 4 5 7 -4 12 -2 12 4 0 10
58 40 141 73 34 14 38 14 65 -9 16 -13 33 -23 37 -24 5 0 24 -12 43 -26 19
-15 34 -23 34 -18 0 4 10 -2 23 -13 52 -46 194 -133 217 -132 21 1 20 2 -9 10
-18 6 -30 13 -27 16 3 4 -14 18 -38 32 -24 14 -65 51 -92 81 -27 30 -40 49
-29 41 11 -8 -16 19 -59 60 -59 55 -85 73 -103 71 -16 -2 -23 2 -23 12 0 9 -5
16 -11 16 -5 0 -7 -4 -4 -10 10 -16 -5 -12 -32 10 -14 11 -29 17 -33 15 -5 -3
-12 0 -16 6 -5 8 -3 9 7 3 10 -6 10 -2 -2 16 -14 21 -25 25 -70 27 -34 2 -64
-3 -83 -13z m555 -1732 c3 -4 16 -43 29 -87 14 -44 30 -91 37 -105 22 -43 17
-48 -27 -36 l-40 10 25 13 c14 8 25 19 25 25 0 7 -4 7 -13 0 -9 -8 -24 -7 -52
3 -22 7 -62 15 -88 18 -27 3 -51 8 -55 11 -6 6 14 151 23 165 5 9 127 -7 136
-17z m-1471 -260 c3 -4 19 -8 35 -10 42 -5 82 -31 64 -43 -10 -6 -4 -9 17 -9
34 0 51 -22 31 -38 -24 -18 -40 -25 -34 -15 9 14 -16 24 -32 14 -7 -5 -3 -12
14 -21 23 -13 24 -15 9 -31 -9 -10 -21 -16 -27 -12 -5 3 -7 2 -4 -3 3 -6 3
-15 -1 -20 -14 -22 -149 -138 -210 -182 -52 -36 -66 -42 -73 -31 -8 11 -9 10
-7 -5 2 -10 -3 -21 -10 -23 -7 -3 -10 1 -6 10 3 8 1 18 -4 21 -10 6 5 75 18
86 3 3 12 24 19 48 15 54 76 176 107 219 17 22 20 33 11 36 -6 2 -18 -3 -25
-12 -11 -14 -12 -13 -3 6 6 12 21 24 33 26 26 5 70 -1 78 -11z m560 -235 c-1
-117 1 -224 4 -237 3 -14 7 -38 9 -55 3 -16 15 -94 27 -173 23 -140 23 -143 4
-157 -38 -30 -94 -55 -123 -55 -44 0 -96 57 -112 122 -28 119 15 382 85 513
20 38 36 72 36 76 0 13 61 179 66 179 3 0 4 -96 4 -213z m-344 58 c-20 -46
-21 -65 -2 -40 12 16 12 13 6 -29 -4 -26 -5 -70 -2 -98 3 -36 2 -49 -6 -44 -6
4 -9 21 -7 39 l5 32 -12 -31 c-7 -17 -19 -29 -26 -27 -7 3 -37 -3 -68 -13 -66
-21 -81 -46 -62 -103 7 -20 18 -43 25 -52 7 -8 13 -27 13 -41 0 -56 41 -58 98
-5 l32 31 0 -30 c0 -51 -19 -104 -38 -104 -12 0 -13 -3 -5 -8 10 -6 10 -23 -2
-78 -8 -38 -15 -81 -15 -96 0 -16 -4 -28 -10 -28 -5 0 -10 3 -10 8 0 7 -73 43
-115 56 -11 4 -40 36 -65 72 -25 36 -54 78 -66 92 -51 67 -98 177 -71 166 16
-6 139 74 132 85 -2 5 3 15 12 22 12 10 14 10 9 2 -4 -7 -3 -13 2 -13 16 0
181 178 220 237 39 59 53 58 28 -2z"/>
<path d="M3201 10974 c-17 -14 -31 -22 -31 -18 0 4 -24 -17 -52 -46 -94 -93
-204 -133 -368 -134 -58 0 -118 3 -135 8 l-30 8 33 -21 c18 -11 56 -24 85 -27
56 -7 178 8 224 28 15 6 44 12 63 13 33 2 31 0 -28 -28 -49 -23 -76 -29 -131
-29 -69 -1 -69 -1 -59 -24 6 -13 16 -24 22 -24 6 0 5 5 -2 12 -20 20 -14 23
56 24 55 0 77 5 122 30 38 21 54 35 52 47 -2 11 7 21 24 28 16 5 65 48 110 94
86 88 97 103 45 59z"/>
<path d="M4948 10236 c-15 -17 -18 -17 -13 -3 5 12 2 17 -8 17 -9 0 -18 -4
-22 -9 -3 -6 -14 -8 -25 -6 -11 2 -20 0 -20 -6 0 -5 -5 -9 -11 -9 -5 0 -7 6
-3 13 4 6 -3 2 -15 -10 -12 -13 -26 -23 -32 -23 -6 0 -17 -6 -24 -12 -35 -32
-50 -43 -52 -40 -2 1 -11 -2 -21 -7 -9 -6 -13 -11 -8 -11 11 0 -62 -50 -73
-50 -5 0 -11 -6 -14 -13 -2 -7 -25 -23 -50 -36 -99 -51 -346 -254 -347 -285 0
-6 -14 -38 -30 -71 -31 -61 -42 -116 -17 -84 10 13 12 6 14 -41 2 -48 13 -75
78 -200 41 -79 73 -145 71 -147 -2 -3 -7 4 -10 14 -3 10 -15 24 -26 31 -19 12
-19 11 2 -23 13 -19 28 -33 33 -31 6 1 19 -13 30 -33 14 -25 28 -37 45 -38
l25 -2 -24 7 c-19 6 -43 43 -108 171 -45 90 -81 167 -78 171 3 5 -1 11 -7 14
-7 3 4 4 25 1 21 -4 36 -2 35 3 -5 16 42 72 60 72 13 0 12 -3 -6 -16 -12 -8
-20 -20 -16 -25 3 -5 0 -8 -7 -7 -6 2 -12 -7 -14 -19 -1 -13 4 -23 11 -23 16
0 54 52 54 73 0 9 4 18 9 21 4 3 11 -25 14 -62 3 -37 10 -78 16 -92 8 -20 9
-16 3 20 -9 56 -9 157 0 230 4 30 7 71 7 91 1 21 10 48 23 64 18 24 23 25 33
12 6 -8 26 -17 45 -19 32 -3 35 -1 46 37 7 22 13 54 14 70 1 36 48 92 90 107
17 5 30 14 30 19 0 6 -10 5 -22 -1 -22 -11 -22 -11 -3 5 11 8 27 21 35 28 8 7
18 13 23 15 4 1 28 13 55 26 70 35 262 68 262 44 0 -5 10 -6 23 -3 18 6 20 5
10 -6 -21 -21 -15 -30 7 -12 14 13 17 20 8 30 -6 7 -9 13 -7 14 2 0 13 3 24 5
33 8 76 6 88 -4 7 -5 33 -14 58 -20 26 -7 55 -14 65 -17 11 -3 -5 6 -35 20
-29 14 -62 25 -72 25 -11 0 -19 4 -19 8 0 4 -8 8 -17 9 -83 7 -120 16 -131 30
-18 25 -60 24 -84 -1z"/>
<path d="M1915 9451 c-22 -44 -48 -81 -57 -84 -24 -7 -23 19 3 62 11 18 18 38
16 45 -3 6 -8 2 -12 -9 -4 -11 -32 -42 -61 -70 -53 -51 -69 -80 -119 -226
l-23 -67 45 -6 c99 -13 98 -14 121 67 11 39 25 101 31 137 10 63 10 63 6 10
l-4 -55 18 55 c10 30 33 90 50 134 18 43 30 80 29 82 -2 2 -22 -32 -43 -75z"/>
<path d="M4414 9306 c5 -37 41 -123 74 -173 8 -13 16 -44 18 -70 6 -77 31
-158 79 -253 25 -50 43 -96 39 -102 -4 -7 -3 -8 4 -4 8 4 12 0 12 -11 0 -11 5
-24 10 -29 23 -23 -40 -128 -102 -169 -37 -25 -98 -34 -98 -15 0 6 -6 10 -14
10 -7 0 -19 7 -26 15 -10 12 -15 13 -21 4 -4 -8 -12 -2 -23 17 -11 21 -15 24
-16 11 0 -10 5 -28 11 -39 8 -15 8 -19 0 -14 -6 4 -11 3 -11 -3 0 -15 81 -48
135 -55 37 -4 46 -3 35 5 -12 8 -10 9 8 5 12 -3 32 -9 45 -12 16 -4 18 -3 8 4
-10 7 -2 12 30 17 24 4 51 12 59 17 11 7 7 8 -12 4 -16 -3 -40 -8 -55 -11 -16
-3 10 14 57 39 47 25 91 45 99 45 8 1 22 7 30 15 16 14 235 100 301 118 42 12
94 38 88 44 -3 2 -44 -11 -91 -30 -48 -19 -87 -33 -87 -31 0 2 44 29 98 60
135 80 158 95 150 95 -10 0 -250 -139 -269 -156 -9 -8 -43 -25 -77 -38 l-62
-24 14 26 c26 50 127 128 148 116 7 -4 10 -4 6 1 -5 5 18 24 50 43 53 32 130
92 117 92 -2 0 -26 -16 -51 -36 -44 -33 -115 -74 -129 -74 -3 0 -3 5 1 11 26
43 -130 -90 -162 -138 -16 -24 -32 -43 -36 -43 -17 0 -18 23 -2 41 9 10 14 19
10 19 -9 0 34 84 48 92 16 9 12 68 -6 79 -7 5 -39 9 -70 9 -80 0 -87 5 -83 48
3 20 2 28 -1 17 -3 -11 -10 -30 -17 -43 -9 -18 -8 -25 2 -32 10 -6 12 -22 7
-64 -4 -31 -12 -56 -17 -56 -19 0 -52 87 -64 169 -7 47 -16 97 -19 111 -5 21
-5 22 3 5 l10 -20 1 20 c1 18 2 18 23 -6 12 -14 28 -35 35 -45 8 -13 14 -15
18 -7 3 7 11 10 18 7 17 -7 29 25 16 41 -5 6 -7 15 -4 18 3 3 3 11 -1 16 -9
16 -38 -16 -31 -34 3 -8 1 -17 -4 -20 -6 -4 -10 1 -10 10 0 9 -6 37 -14 63 -8
26 -22 76 -30 112 l-15 65 6 -55 c3 -30 7 -66 8 -80 1 -14 5 -35 9 -48 12 -35
-2 -26 -24 18 -11 22 -26 40 -33 40 -27 0 -113 135 -144 225 l-13 40 4 -39z"/>
<path d="M6676 8875 c-3 -9 1 -35 10 -58 8 -23 18 -50 21 -59 3 -9 -6 -32 -20
-50 -37 -50 -61 -101 -129 -273 -11 -27 -23 -61 -28 -75 -28 -84 -84 -233
-105 -278 -19 -41 -32 -56 -59 -67 -47 -20 -53 -19 -30 6 12 14 0 9 -31 -13
-27 -19 -75 -44 -105 -55 -58 -21 -54 -17 -191 -196 -60 -79 -69 -94 -47 -81
7 5 8 3 4 -5 -5 -7 -11 -10 -14 -7 -7 7 -52 -33 -52 -46 0 -5 6 -6 13 -2 6 4
-4 -9 -22 -29 -43 -46 -56 -49 -15 -4 21 23 17 21 -14 -8 -40 -37 -59 -61 -27
-35 8 7 15 8 15 2 0 -12 -25 -34 -32 -27 -2 2 -29 -21 -59 -53 -34 -36 -38
-42 -11 -17 32 30 42 35 42 21 0 -9 4 -15 9 -11 10 6 33 -2 161 -53 114 -45
117 -46 125 -22 5 15 15 20 43 20 32 1 41 7 65 41 32 47 53 46 49 0 -2 -35
-37 -111 -56 -123 -7 -5 -3 -8 9 -8 25 0 46 32 50 76 2 22 16 48 38 73 19 21
38 47 41 58 5 17 12 19 56 13 27 -3 47 -3 44 2 -3 4 -11 8 -18 8 -8 0 -19 7
-26 15 -7 8 -15 13 -19 11 -3 -2 -7 15 -7 38 -2 30 0 35 5 16 5 -18 9 -21 15
-12 5 8 2 20 -8 31 -20 22 -20 41 -2 66 13 19 15 18 49 -8 19 -14 41 -28 48
-29 8 -2 17 -7 20 -12 4 -4 24 -12 46 -15 l40 -8 -15 31 c-9 17 -20 34 -25 37
-5 4 -9 18 -9 33 0 14 -4 24 -8 21 -4 -2 0 10 9 28 19 40 44 44 69 12 15 -19
22 -21 32 -12 10 10 12 9 7 -5 -4 -13 -2 -15 10 -11 12 5 14 3 8 -8 -7 -11 -5
-11 10 1 10 8 16 10 12 3 -4 -6 -3 -14 2 -17 5 -4 12 -2 15 3 3 5 15 7 26 4
11 -3 27 0 35 7 12 10 18 10 30 0 8 -7 15 -10 15 -7 0 3 7 31 15 62 15 60 12
85 -12 85 -8 0 -11 5 -8 10 4 6 11 8 16 5 5 -4 9 15 9 42 0 77 13 87 122 94
102 7 138 -4 138 -41 0 -11 2 -20 5 -20 12 0 45 42 51 65 3 14 12 25 20 25 8
0 14 5 14 10 0 18 17 11 23 -9 3 -14 11 -17 31 -14 19 4 24 9 17 17 -6 7 -6
17 -1 26 6 8 10 24 10 34 0 16 -5 13 -24 -13 -13 -18 -26 -29 -29 -24 -10 18
2 74 23 107 29 48 43 96 25 90 -7 -3 -11 -14 -8 -25 3 -11 -1 -21 -11 -25 -9
-3 -13 -10 -10 -15 3 -5 -6 -20 -20 -34 -14 -14 -22 -25 -18 -25 3 0 -4 -7
-16 -16 -12 -8 -19 -20 -16 -26 4 -6 -1 -8 -12 -6 -23 4 -30 41 -11 59 7 8 14
16 15 19 0 3 4 13 8 23 11 29 -4 32 -32 6 l-27 -24 5 32 4 32 -38 -22 c-26
-14 -41 -18 -46 -11 -10 16 -40 13 -47 -3 -4 -12 -7 -12 -20 1 -8 8 -15 20
-15 27 0 10 3 10 12 1 15 -15 32 -16 22 -1 -3 6 -20 17 -38 25 -24 10 -26 13
-10 14 11 0 31 -11 44 -25 13 -14 26 -23 28 -20 12 11 -43 55 -68 55 -28 0
-70 -32 -70 -53 0 -7 5 -4 11 6 6 9 22 17 37 17 20 0 23 -3 13 -9 -8 -5 -21
-7 -29 -3 -11 4 -14 0 -10 -15 5 -19 3 -20 -23 -13 -16 5 -33 9 -37 10 -4 1
-9 4 -12 7 -3 3 5 3 18 0 26 -6 28 1 5 20 -11 9 -12 12 -3 7 8 -4 4 3 -9 16
-23 23 -23 24 -5 37 17 13 16 14 -11 7 -36 -8 -128 -58 -145 -79 -7 -8 -21
-15 -31 -15 -16 0 -18 5 -13 28 4 15 18 40 33 56 24 27 24 28 3 17 -29 -15
-56 -57 -46 -72 4 -8 3 -9 -4 -5 -7 4 -18 -7 -29 -28 -12 -26 -23 -36 -39 -36
-22 0 -22 1 13 88 19 48 43 106 52 130 8 23 22 42 29 42 7 0 15 7 18 15 4 8
10 13 14 10 5 -3 6 5 3 17 -4 19 -3 20 6 8 9 -12 10 -10 5 11 -3 16 1 39 10
57 9 18 12 33 6 37 -12 7 -3 32 27 71 28 37 28 62 4 132 -12 36 -20 48 -25 37z"/>
<path d="M4895 7167 c-71 -40 -155 -87 -185 -104 -30 -16 -85 -47 -122 -67
-38 -21 -68 -42 -68 -48 0 -5 -3 -7 -8 -4 -4 2 -39 -11 -77 -30 -39 -18 -65
-34 -60 -35 15 -1 -27 -17 -48 -18 -10 -1 -16 3 -12 8 9 16 -201 -86 -278
-135 -40 -24 -77 -44 -84 -44 -7 0 -13 -4 -13 -9 0 -5 -10 -13 -22 -17 -13 -4
-43 -24 -68 -45 -46 -39 -191 -124 -290 -171 -60 -28 -105 -68 -77 -68 8 0 17
4 19 9 2 5 32 24 68 43 36 19 83 46 105 60 62 39 112 55 127 40 9 -9 10 -17 1
-30 -9 -15 -7 -21 8 -30 10 -7 21 -12 24 -12 8 0 1 24 -10 32 -7 5 -6 14 2 26
9 15 9 22 0 31 -15 16 19 43 48 39 25 -4 51 -91 29 -96 -11 -3 -11 -9 2 -33
13 -27 13 -33 0 -59 -14 -28 -13 -31 12 -48 15 -10 50 -31 77 -46 l50 -28 -35
31 c-19 17 -32 31 -28 31 4 0 52 -21 105 -47 54 -26 103 -48 108 -49 6 -1 60
-17 121 -37 132 -42 221 -84 206 -99 -6 -6 -24 -3 -53 10 -72 33 -221 89 -269
102 -24 7 -67 23 -93 37 -27 13 -51 22 -54 19 -7 -7 74 -43 224 -101 68 -26
120 -51 117 -56 -3 -5 1 -7 8 -4 7 3 45 -16 83 -41 39 -25 105 -61 148 -81 42
-20 77 -40 77 -44 0 -5 7 -9 16 -9 8 0 12 -4 9 -10 -4 -6 1 -7 11 -3 12 4 15
2 12 -8 -4 -13 26 -54 41 -54 4 0 26 -20 49 -45 24 -25 39 -36 35 -26 -8 22
-73 82 -85 79 -4 -2 -12 6 -18 17 -9 17 -7 17 30 -4 34 -19 62 -47 140 -143 6
-7 11 -16 13 -20 1 -5 5 -7 9 -6 4 2 30 -25 59 -60 29 -34 56 -61 61 -59 30 9
130 -185 173 -338 7 -25 14 -38 14 -29 1 9 -6 38 -14 64 -8 27 -13 50 -11 52
1 1 17 -17 34 -42 17 -25 36 -45 42 -45 6 0 8 -4 5 -10 -3 -5 -2 -10 3 -10 27
0 19 -37 -18 -93 -40 -60 -47 -94 -9 -47 46 57 99 140 99 153 0 7 11 24 25 37
20 19 27 21 40 10 8 -7 18 -10 21 -7 3 3 -23 28 -58 55 -34 28 -76 68 -93 90
-16 21 -38 43 -50 48 -11 6 -19 15 -18 21 2 7 -11 21 -27 33 -17 12 -30 26
-30 32 0 6 7 5 17 -3 9 -8 -11 15 -45 50 -35 35 -60 66 -57 69 2 3 0 12 -6 21
-6 9 3 0 21 -19 18 -19 29 -28 25 -20 -6 11 -3 10 12 -3 11 -9 22 -14 26 -11
6 7 58 -31 137 -99 25 -21 54 -44 65 -50 19 -9 19 -9 5 8 -18 22 -11 19 59
-28 24 -16 51 -30 60 -31 9 -1 32 -10 51 -19 l35 -18 -25 21 c-30 26 -21 23
46 -12 80 -42 289 -116 404 -142 58 -14 92 -25 76 -25 -45 -1 -28 -8 39 -15
33 -4 74 -9 90 -11 17 -1 59 -6 95 -10 36 -4 74 -9 85 -11 153 -27 512 -42
672 -28 95 8 313 -13 291 -28 -8 -6 13 -7 57 -3 39 4 98 6 133 5 56 -1 71 3
128 35 63 35 66 36 71 16 3 -12 10 -21 16 -21 6 0 7 -3 4 -6 -4 -4 -13 -1 -22
6 -11 9 -15 9 -15 1 0 -7 -4 -10 -9 -6 -5 3 -12 1 -16 -5 -10 -17 236 8 254
26 3 3 -19 3 -49 0 -38 -4 -47 -3 -30 3 14 5 38 9 53 10 16 1 26 5 23 9 -3 5
21 22 52 38 31 16 59 32 60 37 2 4 8 5 13 1 5 -3 9 0 9 7 0 7 8 5 20 -6 11
-10 20 -13 20 -7 0 7 -4 12 -10 12 -5 0 -10 5 -10 11 0 5 4 8 9 4 5 -3 13 -1
16 5 8 12 35 -5 35 -22 0 -6 -8 -4 -17 3 -15 12 -16 12 -11 -3 7 -17 -16 -33
-33 -22 -12 7 -11 -7 1 -26 7 -11 10 -11 10 -2 0 7 4 10 10 7 10 -6 51 12 61
27 3 5 16 10 27 11 12 1 22 5 22 10 0 4 5 5 10 2 6 -3 10 -2 10 3 0 16 33 24
42 10 5 -9 8 -5 8 12 0 20 2 22 10 10 8 -12 10 -12 10 5 0 14 3 16 8 7 11 -17
45 -4 38 15 -3 8 -2 11 3 8 19 -11 131 53 131 76 0 4 -9 5 -20 2 -11 -3 -20
-10 -20 -15 0 -5 -4 -6 -10 -3 -5 3 -10 1 -10 -5 0 -8 -6 -8 -20 0 -17 9 -19
8 -13 -7 6 -16 5 -16 -11 -4 -9 8 -16 10 -15 5 4 -21 -2 -26 -16 -14 -13 11
-14 10 -8 -6 6 -17 5 -17 -10 -5 -15 12 -17 12 -11 -3 5 -12 2 -15 -12 -9 -13
5 -15 3 -9 -7 6 -10 4 -12 -8 -7 -10 3 -17 2 -17 -3 0 -5 -7 -6 -17 -3 -11 4
-14 3 -9 -5 5 -8 1 -10 -10 -5 -11 4 -15 2 -11 -4 8 -12 -20 -26 -34 -17 -5 3
-9 1 -9 -5 0 -6 -7 -8 -15 -5 -12 5 -14 2 -8 -12 6 -17 5 -17 -10 -5 -9 7 -17
17 -17 20 0 7 85 51 96 50 4 0 10 3 13 8 13 18 73 54 91 56 11 1 20 4 20 7 0
7 66 40 76 39 4 0 10 3 13 8 3 5 65 38 136 74 112 55 265 151 265 165 0 3 -25
-13 -57 -35 -31 -23 -64 -41 -73 -41 -10 0 -33 -6 -51 -14 -70 -28 -82 -25
-24 6 33 17 65 33 71 34 6 1 37 14 70 30 32 16 64 28 69 29 19 0 115 67 110
75 -3 5 0 12 6 16 8 5 9 3 4 -6 -5 -8 -3 -11 6 -8 8 3 13 10 12 15 -1 6 8 10
20 9 12 -1 35 10 51 24 72 62 156 144 156 152 0 5 -35 9 -77 8 -43 -1 -106 4
-140 11 -50 10 -73 10 -116 0 -70 -17 -109 -10 -48 9 40 13 41 14 20 22 -13 5
-71 13 -129 18 -58 6 -121 13 -141 16 -26 4 -48 0 -75 -14 -21 -11 -75 -27
-119 -37 -176 -38 -722 -235 -709 -256 3 -5 -2 -6 -10 -3 -20 8 -198 -85 -189
-99 3 -6 1 -7 -5 -3 -12 7 -72 -19 -72 -33 0 -4 -6 -8 -12 -8 -7 0 -65 -29
-128 -65 -252 -142 -317 -178 -365 -199 -27 -12 -63 -31 -78 -43 -24 -18 -43
-21 -130 -21 -154 0 -475 51 -787 125 -91 22 -220 49 -287 61 -86 15 -128 28
-146 43 -34 29 -110 74 -181 108 -83 40 -330 191 -535 326 -95 63 -199 126
-231 141 -53 24 -57 28 -45 44 10 13 14 15 18 5 4 -8 6 -6 6 5 1 15 -4 17 -34
11 -25 -4 -41 -1 -62 13 -15 11 -35 22 -44 25 -17 7 -44 129 -30 138 5 3 -4
18 -20 34 -22 22 -29 25 -29 13 0 -22 -12 -21 -40 1 -23 19 -23 19 48 30 90
15 92 15 92 -4 0 -8 4 -13 9 -10 5 3 21 -4 36 -15 18 -15 25 -28 21 -42 -3
-11 -1 -28 4 -38 9 -15 13 -36 24 -107 4 -23 21 -8 18 16 -3 21 0 22 85 23 48
1 91 1 96 0 4 0 7 3 7 8 0 5 9 7 19 4 43 -11 274 45 316 77 6 4 42 18 80 30
39 13 98 36 132 51 73 32 197 53 226 38 16 -9 98 -36 132 -44 6 -1 24 -8 40
-14 48 -20 135 -29 195 -20 30 4 97 13 149 20 52 6 146 22 210 35 63 12 119
20 124 17 5 -3 13 0 17 7 4 7 22 13 39 14 17 0 31 4 31 9 0 4 12 5 28 1 22 -4
24 -3 12 6 -12 9 -11 10 7 5 13 -3 71 11 145 35 158 53 161 54 109 29 -25 -12
-115 -45 -200 -75 -176 -61 -180 -68 -11 -23 154 41 150 40 150 51 0 5 10 6
23 3 15 -4 18 -3 8 3 -10 7 0 14 38 27 28 9 56 13 62 9 7 -4 9 -3 6 3 -3 5 19
21 49 36 60 30 68 32 59 17 -11 -17 46 12 145 76 52 33 130 82 173 109 44 26
91 59 105 72 21 19 17 18 -18 -6 -25 -17 -54 -29 -65 -27 -11 2 -50 -17 -90
-44 -93 -63 -129 -80 -162 -80 l-28 1 35 19 c21 11 28 19 18 20 -28 0 -70 -19
-63 -30 3 -5 2 -10 -4 -10 -5 0 -13 5 -17 12 -5 7 -11 5 -21 -7 -7 -11 -13
-13 -13 -7 0 7 -9 3 -21 -9 -11 -11 -27 -18 -34 -15 -8 3 -17 1 -21 -5 -3 -6
-13 -8 -21 -5 -8 3 -11 2 -8 -3 3 -5 -7 -11 -22 -13 -16 -2 -27 -8 -26 -15 1
-6 -12 -15 -29 -18 -17 -4 -46 -14 -64 -21 -19 -8 -36 -14 -39 -15 -2 0 -34
-11 -70 -24 -73 -28 -92 -31 -55 -10 39 23 18 17 -46 -11 -75 -33 -124 -49
-254 -78 -193 -44 -246 -50 -462 -47 -15 1 -29 5 -33 11 -3 5 -17 10 -31 10
-19 0 -24 5 -23 23 1 17 2 18 6 4 3 -10 9 -14 16 -10 7 4 59 7 117 6 58 0 85
1 60 3 -73 7 -149 24 -162 38 -15 14 -257 55 -264 44 -3 -4 -23 -13 -45 -20
-38 -11 -40 -12 -18 -20 19 -7 21 -11 9 -18 -21 -14 -63 -13 -54 1 4 7 0 9
-14 5 -19 -6 -102 -10 -127 -6 -5 0 22 10 60 20 39 11 76 17 83 15 7 -3 10 0
7 5 -3 6 -1 11 4 11 6 1 14 2 19 3 4 1 22 6 40 10 31 7 45 26 19 26 -7 0 -54
-9 -103 -19 -49 -10 -151 -24 -226 -31 -135 -11 -140 -11 -240 15 -149 38
-236 65 -295 91 -73 32 -66 36 10 8 114 -41 205 -54 373 -54 87 0 155 2 153 4
-2 2 -47 7 -99 10 -196 14 -403 62 -519 121 -48 24 -61 40 -61 74 0 20 46 45
62 35 7 -5 8 -2 3 7 -6 11 -5 12 5 2 11 -10 16 -8 25 10 23 47 50 49 170 12
124 -38 117 -41 -45 -20 -62 8 -116 13 -118 10 -30 -30 218 -59 607 -71 183
-6 222 -4 216 6 -6 10 -4 12 8 7 10 -3 17 -2 17 4 0 7 19 10 49 7 27 -1 47 0
45 3 -2 4 25 9 59 13 34 3 113 19 175 34 l112 29 0 -26 c0 -15 -12 -44 -26
-66 l-25 -40 25 30 c23 27 34 49 49 96 3 9 43 29 99 48 107 37 263 110 364
169 110 65 117 77 15 27 -151 -75 -274 -127 -298 -127 -13 0 -21 -4 -18 -8 2
-4 -35 -20 -83 -37 -85 -30 -88 -30 -112 -12 -14 9 -35 20 -47 24 -19 5 -23 2
-23 -14 0 -14 9 -23 26 -27 38 -10 16 -19 -102 -43 -176 -36 -300 -44 -408
-26 -132 21 -240 57 -313 106 -58 37 -80 68 -50 69 6 1 26 7 42 15 l30 15 -35
-6 c-50 -9 -204 -70 -279 -110 -35 -20 -85 -42 -110 -51 -25 -8 -50 -21 -56
-28 -9 -12 -97 -45 -119 -45 -8 0 129 73 297 159 32 16 66 36 75 44 9 7 47 30
83 50 37 19 88 51 114 71 25 20 52 36 60 36 7 0 18 7 25 15 7 8 11 15 9 15 -2
0 -62 -33 -134 -73z m-241 -642 c59 -14 354 -38 478 -39 29 -1 41 -4 32 -9
-48 -27 -348 -44 -414 -23 -55 17 -187 82 -196 97 -4 8 0 8 14 0 11 -6 50 -18
86 -26z"/>
<path d="M5058 4529 c-64 -73 -88 -108 -88 -127 0 -32 41 -97 71 -113 11 -6
18 -13 15 -16 -3 -3 10 -24 29 -46 40 -46 42 -62 15 -97 -11 -14 -20 -31 -20
-38 0 -7 -7 -15 -15 -18 -8 -4 -13 -10 -10 -14 3 -5 1 -11 -5 -15 -5 -3 -10
-13 -10 -21 0 -12 4 -12 20 -4 16 8 19 17 14 33 -3 12 -3 19 1 15 4 -4 15 7
24 25 9 18 23 42 31 53 12 19 10 25 -10 55 l-23 34 29 -26 c80 -71 87 -61 9
13 -49 47 -94 85 -98 84 -12 -1 -30 34 -37 75 -7 35 -3 41 57 109 35 39 61 75
58 80 -3 5 -1 11 5 15 9 6 34 45 28 45 -2 0 -42 -45 -90 -101z"/>
<path d="M4957 4119 c-9 -6 -27 -7 -39 -3 -17 5 -20 3 -15 -10 4 -10 1 -19 -8
-22 -8 -4 -12 -11 -8 -17 3 -6 1 -7 -6 -3 -6 4 -17 3 -24 -2 -7 -6 -33 -9 -59
-7 -27 1 -48 1 -48 0 0 -2 24 -8 53 -14 28 -7 89 -30 135 -52 46 -22 85 -39
88 -37 2 2 -28 20 -67 38 -74 36 -104 60 -75 60 9 0 16 -5 16 -11 0 -5 5 -7
10 -4 6 3 10 1 10 -4 0 -6 5 -11 11 -11 5 0 7 5 3 12 -4 7 -3 8 5 4 6 -4 9
-11 6 -16 -7 -11 24 -22 37 -13 7 3 8 1 4 -5 -4 -7 0 -12 11 -13 32 -2 37 -4
83 -28 52 -28 40 -5 -17 30 -30 19 -33 25 -28 55 4 27 1 36 -13 41 -14 6 -13
8 8 15 l25 7 -26 -2 c-14 -1 -33 3 -40 10 -10 8 -20 8 -32 2z"/>
<path d="M5471 3490 c-17 -28 -31 -54 -31 -59 0 -5 -6 -11 -12 -14 -18 -6 -3
-20 62 -55 30 -16 72 -39 92 -50 l37 -21 -9 24 c-5 14 -7 32 -4 40 4 8 -1 17
-10 21 -9 3 -13 10 -10 15 3 5 0 9 -6 9 -6 0 -8 5 -5 10 3 6 1 10 -6 10 -7 0
-10 3 -6 6 7 7 -17 57 -43 92 l-18 22 -31 -50z"/>
<path d="M5830 3160 c0 -5 -7 -10 -16 -10 -10 0 2 -19 34 -52 28 -29 51 -57
51 -61 -1 -5 10 -21 24 -35 43 -47 137 -187 128 -190 -12 -4 -3 -32 10 -32 4
0 6 8 2 18 -7 18 -5 17 17 -12 12 -16 12 -18 1 -12 -9 6 -12 4 -9 -5 3 -8 10
-14 16 -14 5 0 14 -4 19 -9 5 -5 3 -6 -4 -2 -7 4 -13 3 -13 -2 0 -13 25 -33
33 -27 4 3 5 2 3 -1 -9 -11 59 -98 137 -176 42 -43 77 -74 77 -70 0 4 -5 13
-12 20 -25 25 6 11 59 -28 51 -36 92 -80 85 -89 -6 -6 82 -60 90 -55 4 3 8 0
8 -7 0 -7 3 -10 6 -7 3 3 33 -24 66 -60 92 -101 117 -125 79 -74 -18 23 -29
42 -24 42 21 -1 82 -37 76 -45 -5 -4 -3 -5 4 -1 6 3 26 -2 44 -13 18 -11 36
-18 41 -15 4 3 8 0 8 -5 0 -6 10 -11 23 -11 18 0 16 3 -13 17 -93 42 -234 117
-257 136 -24 18 -13 28 12 11 14 -9 28 -14 31 -11 3 3 -21 19 -54 37 -59 31
-137 100 -114 100 7 0 31 -14 54 -31 23 -16 61 -39 83 -50 22 -10 56 -31 75
-45 36 -26 53 -18 29 14 -11 14 -10 14 8 -1 16 -14 26 -16 39 -9 12 7 13 11 5
17 -7 4 -15 5 -18 2 -3 -3 -16 7 -30 24 -14 16 -29 27 -33 24 -5 -3 -19 8 -31
25 -32 43 -45 37 -18 -7 21 -35 18 -33 -45 25 -72 65 -104 77 -46 17 18 -19
31 -37 28 -40 -3 -3 -17 7 -32 22 -15 15 -37 28 -49 28 -12 0 -22 5 -22 12 0
6 -4 15 -9 20 -5 4 -6 3 -3 -4 12 -19 -16 -20 -48 -1 -16 10 -49 35 -72 56
-24 21 -57 47 -75 57 -37 20 -98 91 -205 239 -40 55 -96 130 -124 166 l-52 65
58 -55 c32 -30 54 -48 49 -40 -24 43 -53 80 -92 114 -23 21 -40 42 -36 45 3 3
19 -10 36 -29 l30 -35 -32 48 c-17 26 -33 47 -36 47 -3 0 -2 -4 1 -10 3 -5 3
-10 -2 -10 -4 0 -14 14 -21 30 -13 29 -32 41 -32 20z"/>
<path d="M6425 2153 c12 -32 9 -49 -10 -57 -13 -4 -13 -2 -5 14 12 23 -3 35
-20 15 -7 -8 -16 -13 -20 -10 -11 7 -40 -23 -40 -41 0 -9 -5 -12 -12 -8 -7 5
-8 3 -4 -5 5 -7 11 -10 14 -6 3 3 21 -9 39 -27 18 -17 33 -29 33 -24 0 4 17
-9 37 -29 l36 -35 -32 -32 c-37 -36 -45 -32 -46 22 l0 39 29 -27 30 -27 -31
40 c-65 84 -116 112 -144 79 -19 -23 -46 -35 -63 -28 -9 3 -13 11 -9 17 3 6 1
7 -5 3 -6 -4 -9 -13 -6 -21 4 -11 -3 -13 -32 -9 -41 5 -105 52 -98 72 5 17
-22 59 -44 66 -15 5 -15 5 1 -8 9 -7 17 -18 17 -25 0 -6 5 -11 10 -11 6 0 10
-4 10 -9 0 -6 -15 -7 -34 -4 -26 4 -35 1 -40 -13 -5 -12 -1 -23 10 -31 10 -7
13 -13 6 -13 -6 0 -37 22 -69 48 -61 51 -83 66 -83 59 0 -3 29 -29 65 -58 100
-81 131 -142 41 -80 -24 17 -48 31 -52 31 -4 0 52 -41 125 -91 73 -50 135 -89
137 -86 2 2 -32 28 -76 57 -44 29 -78 55 -76 58 10 9 161 -106 158 -121 -2
-15 12 -30 33 -33 13 -2 85 -45 85 -51 0 -2 -4 -2 -9 2 -5 3 -12 1 -16 -4 -3
-6 5 -8 19 -5 14 2 28 0 31 -6 3 -5 11 -10 17 -10 6 0 5 7 -3 17 -13 15 -12
15 8 3 21 -14 21 -14 3 -27 -21 -15 -381 -24 -435 -11 l-30 7 30 -13 30 -14
-60 -8 c-85 -12 -108 -11 -111 4 -1 7 0 8 3 2 2 -5 12 -10 20 -10 13 0 13 3 3
16 -11 12 -11 15 0 12 8 -2 15 4 15 12 2 24 -15 51 -27 44 -7 -4 -8 -3 -4 4 8
14 46 16 46 4 0 -5 15 -17 34 -27 29 -16 37 -16 50 -6 11 9 13 18 6 30 -11 22
-117 74 -136 67 -9 -3 -14 1 -14 12 0 15 -2 15 -10 2 -15 -23 -12 -29 10 -25
26 5 34 -9 15 -25 -13 -10 -19 -10 -33 3 -12 11 -22 13 -35 6 -9 -6 -17 -6
-17 -2 0 4 -5 1 -10 -7 -7 -11 -10 -11 -10 -2 0 8 -5 10 -12 6 -8 -4 -10 -3
-5 2 9 9 14 11 47 13 17 1 19 4 8 20 -8 13 -16 17 -23 11 -14 -11 -14 17 0 40
4 8 5 12 0 8 -4 -4 -15 -2 -23 5 -13 10 -14 9 -7 -3 14 -22 15 -39 3 -47 -7
-3 -8 -1 -4 5 4 7 2 12 -3 12 -6 0 -10 5 -9 11 2 6 -6 13 -17 14 -11 2 -30 6
-42 10 -19 6 -22 3 -21 -24 1 -18 5 -34 10 -37 4 -3 8 -10 8 -16 0 -6 -8 -3
-19 8 -10 10 -16 25 -13 33 3 9 1 12 -6 7 -7 -4 -12 -1 -12 10 0 14 -3 14 -15
4 -13 -11 -18 -10 -30 6 -12 17 -11 22 8 42 l22 24 -28 -13 c-15 -7 -25 -14
-22 -17 3 -3 -1 -12 -8 -20 -10 -13 -9 -14 1 -8 9 5 15 1 19 -13 4 -14 12 -21
24 -19 10 2 17 0 16 -4 -1 -3 11 -16 26 -28 24 -19 26 -24 15 -38 -8 -10 -9
-13 -1 -9 6 4 13 2 16 -5 2 -7 3 -5 2 5 -2 11 3 17 15 17 28 0 29 22 3 48 -13
12 -23 28 -22 35 0 9 2 9 6 -1 2 -6 10 -9 16 -5 7 3 9 2 4 -2 -9 -10 21 -45
40 -45 17 0 17 -15 -2 -30 -13 -11 -13 -14 1 -27 18 -19 15 -22 -20 -25 l-28
-2 23 -19 c14 -12 25 -14 29 -7 4 6 12 1 19 -13 7 -13 28 -30 46 -37 l34 -13
-36 -19 c-19 -11 -41 -17 -49 -14 -16 6 -60 -15 -59 -28 0 -13 -43 -27 -50
-16 -12 20 -55 9 -181 -44 -91 -39 -129 -59 -128 -70 2 -19 -1 -19 -26 -6 -12
7 -29 6 -52 -3 -47 -17 -139 -77 -133 -87 3 -4 -1 -7 -8 -7 -37 2 -77 -17 -88
-42 -7 -14 -39 -48 -73 -75 -90 -71 -207 -187 -200 -198 4 -5 -14 -31 -40 -57
-37 -37 -42 -47 -27 -48 25 -2 66 43 80 89 12 37 41 72 41 49 0 -7 -6 -24 -14
-39 -8 -15 -24 -79 -36 -142 -11 -63 -28 -144 -36 -180 -7 -36 -16 -80 -18
-98 l-4 -33 20 21 c16 17 38 20 38 4 0 -3 -4 -3 -9 0 -5 3 -9 -9 -10 -27 0
-17 -2 -42 -5 -55 -10 -44 16 -17 35 38 10 30 23 58 29 64 5 5 10 15 10 21 0
5 -5 3 -11 -5 -8 -11 -9 -9 -4 10 4 14 12 30 17 35 6 6 7 4 2 -8 -3 -10 -3
-17 2 -16 20 3 21 -3 12 -48 -14 -79 -29 -185 -32 -239 -2 -28 -8 -60 -14 -71
-6 -11 -8 -24 -4 -29 4 -5 -2 -2 -12 6 -13 10 -17 10 -12 2 4 -7 2 -12 -6 -12
-8 0 -14 9 -15 20 -2 24 -29 54 -37 41 -7 -11 38 -144 45 -136 4 3 4 -6 2 -20
-5 -25 2 -29 44 -28 7 0 11 -3 10 -6 -1 -4 27 -42 63 -84 l65 -76 1902 0 1902
-1 -63 88 c-52 73 -105 152 -139 209 -14 24 14 23 37 0 16 -16 26 -21 29 -13
3 7 -8 18 -24 25 -16 7 -26 17 -23 23 4 6 3 9 -2 5 -15 -9 -47 20 -38 34 15
24 13 62 -4 93 l-16 31 -8 -78 c-4 -42 -12 -85 -17 -95 -6 -9 -11 -12 -11 -7
0 6 -11 12 -24 13 -19 1 -25 -4 -28 -21 -3 -20 -5 -18 -20 13 -10 19 -18 29
-18 23 0 -27 -30 -13 -30 15 -1 100 -20 276 -31 282 -11 7 -9 32 7 100 3 14 8
41 10 60 3 34 3 35 -5 5 -8 -29 -9 -28 -11 15 -2 25 -4 50 -4 55 -3 21 -17 34
-31 28 -11 -3 -13 -1 -9 10 3 8 0 18 -6 22 -8 5 -8 11 0 20 7 9 6 16 -5 25
-18 15 -11 31 10 23 8 -3 15 0 15 6 0 6 -7 11 -15 11 -10 0 -14 9 -13 25 2 16
7 24 15 20 10 -3 11 0 3 15 -10 18 -22 25 -43 21 -5 -1 -6 3 -3 7 3 5 17 8 31
7 14 -2 23 1 20 5 -3 5 -12 7 -20 4 -10 -4 -13 0 -10 15 2 12 0 19 -6 16 -5
-4 -7 -11 -4 -16 4 -5 1 -9 -4 -9 -6 0 -11 7 -11 16 0 13 -3 14 -13 5 -9 -7
-17 -7 -24 0 -6 6 -10 5 -10 -5 0 -8 4 -13 9 -10 5 4 8 0 7 -7 -3 -17 20 -99
28 -99 3 0 3 9 0 19 -3 13 0 18 7 15 20 -8 14 -32 -11 -43 -12 -6 -23 -15 -23
-21 0 -7 7 -7 21 0 11 7 23 9 27 6 3 -3 2 -6 -3 -6 -4 0 -1 -7 6 -16 12 -15
11 -16 -11 -10 -24 7 -24 6 -6 -8 11 -9 16 -16 12 -16 -5 0 -2 -7 5 -16 7 -9
-34 31 -91 88 -93 92 -114 108 -182 136 -43 18 -91 35 -108 38 -39 8 -150 136
-150 173 0 18 -3 22 -9 13 -6 -10 -18 -2 -49 28 -44 45 -87 110 -72 110 18 0
10 19 -9 25 -11 3 -22 14 -24 23 -4 16 -5 16 -6 0 -1 -11 -7 -15 -15 -12 -12
4 -9 13 10 42 29 42 13 66 -17 27 -24 -30 -59 -39 -65 -17 -3 9 -10 25 -15 34
-5 10 -9 34 -9 53 l0 36 33 -17 c17 -10 26 -19 20 -21 -23 -8 -14 -21 20 -28
17 -3 41 -10 52 -15 11 -4 60 -14 109 -20 57 -8 83 -15 75 -21 -9 -6 1 -9 31
-10 25 -1 50 -3 55 -4 6 -2 21 -3 35 -4 22 -1 20 -4 -15 -20 -22 -10 -51 -31
-65 -47 l-25 -29 30 26 c40 35 68 49 99 49 l25 0 -24 25 c-26 25 -27 30 -27
104 0 28 -10 65 -28 102 -15 32 -25 60 -22 63 3 4 -1 6 -8 6 -7 0 -10 3 -7 7
9 9 -13 34 -24 27 -5 -3 -6 1 -3 9 3 8 0 18 -6 22 -9 6 -9 10 1 16 11 7 -82
13 -171 11 -3 0 -20 -3 -39 -7 -23 -5 -31 -4 -27 4 8 12 -38 -2 -59 -18 -5 -5
-32 -13 -59 -20 -27 -7 -72 -24 -100 -38 -63 -32 -109 -45 -159 -43 -28 1 -43
-5 -57 -22 l-19 -23 -9 25 c-12 32 -5 51 16 43 13 -6 13 -7 -3 -13 -16 -6 -16
-7 -2 -13 8 -3 21 1 27 9 7 8 9 14 4 14 -5 1 -22 12 -39 26 -16 15 -24 23 -17
20 6 -4 12 -3 12 2 0 5 -14 9 -32 9 -18 0 -34 5 -36 11 -2 7 -8 12 -13 12 -5
0 -23 15 -40 33 -17 17 -27 26 -23 18 5 -11 1 -12 -22 -7 -42 11 -50 23 -30
45 9 10 13 22 8 25 -5 3 -17 -3 -27 -14 -19 -21 -56 -23 -48 -3 3 7 0 13 -7
13 -6 0 -28 12 -48 28 -20 15 -33 21 -28 15 5 -9 2 -11 -8 -7 -8 3 -18 14 -21
25 -4 10 -11 19 -17 19 -6 0 -7 -5 -2 -13 5 -7 1 -4 -8 6 -10 11 -25 17 -33
13 -8 -3 -15 -2 -15 2 0 9 -49 32 -68 32 -9 0 -12 -6 -7 -17z"/>
</g>
</svg>
